<svg width="54" height="52" viewBox="0 0 54 52" fill="none" xmlns="http://www.w3.org/2000/svg">
<path d="M20.6691 25.8096C19.6155 25.2332 18.2458 26.9045 16.7709 27.9096C15.2955 28.9148 13.1884 30.7067 13.7149 32.7961C14.2425 34.8855 16.7709 36.3783 16.7709 36.3783C16.7709 36.3783 19.7207 31.2039 22.4601 30.0097C22.4601 30.0097 21.7226 26.3865 20.6691 25.8096Z" fill="white"/>
<path d="M23.6194 41.9506C24.6842 42.8792 26.3233 43.8684 27.1479 44.262C27.972 43.8684 29.6111 42.8792 30.6765 41.9506C32.0462 40.7563 31.8358 39.3634 30.6765 39.0648C29.8108 38.8422 28.0069 39.2295 27.1479 39.4399C26.2884 39.2295 24.4845 38.8422 23.6194 39.0648C22.4601 39.3634 22.2497 40.7563 23.6194 41.9506Z" fill="white"/>
<path d="M20.5481 8.21726C20.5481 8.21726 13.5939 9.80942 12.1196 11.8994C12.1196 11.8994 12.7513 7.62014 8.22093 6.22667C3.69056 4.83426 -4.5585 13.5627 5.90287 20.0588C5.90287 20.0588 4.95506 24.2382 4.00668 27.5218C3.05831 30.8055 3.85875 38.5676 9.62212 43.9406C9.62212 43.9406 3.47962 36.7762 4.84931 29.3132C6.219 21.8497 10.6442 11.3017 20.5481 8.21726Z" fill="white"/>
<mask id="mask0_203_74" style="mask-type:luminance" maskUnits="userSpaceOnUse" x="22" y="45" width="10" height="3">
<path d="M22.608 45.7719H31.68V47.9744H22.608V45.7719Z" fill="white"/>
</mask>
<g mask="url(#mask0_203_74)">
<path d="M22.6693 45.7821C24.3084 47.4773 25.8362 48.0192 27.1479 47.9809C28.4597 48.0192 29.9869 47.4773 31.6266 45.7821C31.6266 45.7821 29.511 46.8616 27.1479 46.9859C24.7849 46.8616 22.6693 45.7821 22.6693 45.7821Z" fill="white"/>
</g>
<path d="M37.5249 27.9096C36.0501 26.9045 34.6804 25.2332 33.6268 25.8096C32.5733 26.3865 31.8358 30.0097 31.8358 30.0097C34.5746 31.2039 37.5249 36.3783 37.5249 36.3783C37.5249 36.3783 40.0534 34.8855 40.5804 32.7961C41.1075 30.7067 39.0004 28.9148 37.5249 27.9096Z" fill="white"/>
<mask id="mask1_203_74" style="mask-type:luminance" maskUnits="userSpaceOnUse" x="33" y="6" width="21" height="38">
<path d="M33.696 6.07898H53.4639V43.9943H33.696V6.07898Z" fill="white"/>
</mask>
<g mask="url(#mask1_203_74)">
<path d="M46.0749 6.22665C41.5446 7.62012 42.1762 11.8993 42.1762 11.8993C40.7014 9.8094 33.7477 8.21725 33.7477 8.21725C43.6517 11.3017 48.0763 21.8497 49.446 29.3132C50.8157 36.7762 44.6732 43.9406 44.6732 43.9406C50.4371 38.5676 51.2376 30.8055 50.2892 27.5218C49.3408 24.2382 48.393 20.0588 48.393 20.0588C58.8538 13.5627 50.6053 4.83425 46.0749 6.22665Z" fill="white"/>
</g>
</svg>
